<svg width="416" height="416" viewBox="0 0 416 416" fill="none" xmlns="http://www.w3.org/2000/svg">
<path d="M41.6612 408.69L135.751 314.6C165.908 337.253 202.614 349.481 240.331 349.44C336.671 349.44 415.051 271.06 415.051 174.72C415.051 78.38 336.671 -3.4261e-06 240.331 -7.63725e-06C143.991 -1.18484e-05 65.6113 78.38 65.6113 174.72C65.57 212.437 77.7986 249.143 100.451 279.3L6.36125 373.39C2.10371 378.153 -0.168997 384.365 0.00971803 390.751C0.188434 397.137 2.80502 403.212 7.32228 407.729C11.8395 412.246 17.9147 414.863 24.3005 415.042C30.6864 415.22 36.8984 412.948 41.6612 408.69ZM240.331 49.92C265.014 49.92 289.143 57.2394 309.666 70.9526C330.19 84.6658 346.186 104.157 355.631 126.961C365.077 149.765 367.549 174.858 362.733 199.067C357.918 223.276 346.032 245.513 328.578 262.967C311.125 280.421 288.887 292.307 264.679 297.122C240.47 301.937 215.377 299.466 192.572 290.02C169.768 280.574 150.277 264.578 136.564 244.055C122.851 223.532 115.531 199.403 115.531 174.72C115.571 141.633 128.732 109.913 152.128 86.5169C175.524 63.121 207.244 49.9597 240.331 49.92Z" fill="#F5F5F5"/>
</svg>
